<?xml version="1.0" encoding="UTF-8" standalone="no"?>
<!-- Created with Inkscape (http://www.inkscape.org/) -->

<svg
   version="1.1"
   id="svg1"
   width="610"
   height="610"
   viewBox="0 0 610 610"
   sodipodi:docname="Koko.svg"
   inkscape:version="1.4 (86a8ad7, 2024-10-11)"
   xmlns:inkscape="http://www.inkscape.org/namespaces/inkscape"
   xmlns:sodipodi="http://sodipodi.sourceforge.net/DTD/sodipodi-0.dtd"
   xmlns="http://www.w3.org/2000/svg"
   xmlns:svg="http://www.w3.org/2000/svg">
  <defs
     id="defs1" />
  <sodipodi:namedview
     id="namedview1"
     pagecolor="#ffffff"
     bordercolor="#000000"
     borderopacity="0.25"
     inkscape:showpageshadow="2"
     inkscape:pageopacity="0.0"
     inkscape:pagecheckerboard="0"
     inkscape:deskcolor="#d1d1d1"
     showgrid="true"
     inkscape:zoom="1.4142136"
     inkscape:cx="298.75261"
     inkscape:cy="311.83408"
     inkscape:window-width="2560"
     inkscape:window-height="1494"
     inkscape:window-x="-11"
     inkscape:window-y="-11"
     inkscape:window-maximized="1"
     inkscape:current-layer="g1">
    <inkscape:grid
       id="grid3"
       units="px"
       originx="-40.5"
       originy="-40.5"
       spacingx="1"
       spacingy="1"
       empcolor="#0099e5"
       empopacity="0.30196078"
       color="#0099e5"
       opacity="0.14901961"
       empspacing="5"
       enabled="true"
       visible="true" />
  </sodipodi:namedview>
  <g
     inkscape:groupmode="layer"
     inkscape:label="Image"
     id="g1"
     transform="translate(-40.5,-40.5)">
    <circle
       style="fill:#8dd35f"
       id="path25"
       cx="345.5"
       cy="345.5"
       r="305" />
    <path
       style="fill:#0b0b0b;stroke-width:0.999127"
       d="m 318.28459,608.30979 c -32.6312,-3.36638 -62.48998,-11.92492 -90.52493,-25.94748 -32.53276,-16.27227 -32.74077,-16.97974 -11.20856,-38.12245 7.61238,-7.47468 20.47011,-20.09709 28.57273,-28.04979 l 14.73203,-14.45945 v -53.06621 c 0,-29.18641 0.35856,-53.28795 0.79678,-53.55897 1.30354,-0.8062 2.36874,0.14919 24.4658,21.94352 11.65959,11.49987 27.93683,27.41523 36.1717,35.36747 8.23495,7.95224 26.2308,25.49298 39.99082,38.97942 13.76001,13.48644 29.2661,28.56556 34.45797,33.50915 60.52239,57.62858 61.36306,58.79538 47.17416,65.47103 -28.97946,13.63432 -86.32141,21.8857 -124.6285,17.93376 z M 153.19116,523.16283 C 79.51798,448.21894 60.875737,312.64345 111.30879,218.57363 c 14.28245,-26.64026 43.7015,-64.92556 49.91736,-64.96139 0.412,-0.002 0.74909,84.77593 0.74909,188.39623 0,103.62029 -0.37368,188.40054 -0.83038,188.40054 -0.45671,0 -4.03588,-3.26078 -7.9537,-7.24618 z m 374.2841,-15.57346 c -6.49888,-4.14222 -103.77473,-96.30795 -168.4903,-159.63919 -10.71654,-10.48726 -12.1439,-7.70276 18.16544,-35.43781 9.30426,-8.51409 20.54055,-18.89213 24.96955,-23.06233 7.98715,-7.52056 19.97144,-18.58741 53.48177,-49.38775 9.56923,-8.79536 21.02475,-19.36478 25.45665,-23.4876 46.18896,-42.96748 49.07265,-45.04347 60.40213,-43.48419 12.55719,1.72825 30.51539,24.5178 45.68578,57.97653 37.66796,83.07798 23.84921,206.36505 -30.26529,270.01917 -8.23006,9.68084 -20.2497,12.33903 -29.40573,6.50317 z M 260.52172,283.87249 c -0.36622,-0.36647 -0.66586,-23.47271 -0.66586,-51.3472 V 181.8444 l -3.24605,-3.40648 c -4.19765,-4.40513 -40.50243,-38.82843 -47.80468,-45.32722 -11.76769,-10.47291 -10.70522,-13.77466 7.60372,-23.62934 59.3575,-31.948829 129.35783,-40.097097 196.65335,-22.891071 27.98187,7.154393 37.56099,11.764329 37.56099,18.076241 0,3.31189 -6.50397,9.70499 -59.92691,58.90538 -13.54538,12.47472 -19.72444,18.29562 -40.95006,38.57633 -6.31729,6.03606 -20.45455,19.28483 -31.41618,29.44172 -10.96163,10.15688 -28.09912,26.22545 -38.08335,35.70795 -18.71527,17.7748 -18.61217,17.68816 -19.72497,16.57458 z"
       id="path24"
       sodipodi:nodetypes="sssscssssscssssssssssssscsssssscssssssssss" />
  </g>
</svg>
